<?xml version="1.0" encoding="utf-8"?>
<!-- Generator: Adobe Illustrator 24.3.0, SVG Export Plug-In . SVG Version: 6.00 Build 0)  -->
<svg version="1.1" xmlns="http://www.w3.org/2000/svg" xmlns:xlink="http://www.w3.org/1999/xlink" x="0px" y="0px"
	 viewBox="0 0 993 1074" style="enable-background:new 0 0 993 1074;" xml:space="preserve">
<style type="text/css">
	.st0{display:none;}
	.st1{display:inline;}
	.st2{fill:url(#SVGID_1_);}
	.nub1{
		opacity:0.11;fill:#F2F2F2;stroke:#F2F2F2;stroke-width:43;stroke-miterlimit:10;
		animation: aninubes 8.7s infinite;
		-o-animation: aninubes 8.7s infinite;
		-moz-animation: aninubes 8.7s infinite;
		-webkit-animation: aninubes 8.7s infinite;
		transition: transform 8.7s ease-in-out;
	}
	.nub2{
		opacity:3.000000e-02;fill:#F2F2F2;stroke:#F2F2F2;stroke-width:43;stroke-miterlimit:10;
		animation: aninubes 6.9s infinite;
		-o-animation: aninubes 6.9s infinite;
		-moz-animation: aninubes 6.9s infinite;
		-webkit-animation: aninubes 6.9s infinite;
		transition: transform 6.9s ease-in-out;
	}
	.nub3{
		opacity:0.17;fill:#F2F2F2;stroke:#F2F2F2;stroke-width:43;stroke-miterlimit:10;
		animation: aninubes 7.2s infinite;
		-o-animation: aninubes 7.2s infinite;
		-moz-animation: aninubes 7.2s infinite;
		-webkit-animation: aninubes 7.2s infinite;
		transition: transform 7.2s ease-in-out;
	}
	.nub4{
		opacity:0.15;fill:#F2F2F2;stroke:#F2F2F2;stroke-width:43;stroke-miterlimit:10;
		animation: aninubes 8.3s infinite;
		-o-animation: aninubes 8.3s infinite;
		-moz-animation: aninubes 8.3s infinite;
		-webkit-animation: aninubes 8.3s infinite;
		transition: transform 8.3s ease-in-out;
	}
	.nub5{
		opacity:0.15;fill:#F2F2F2;stroke:#F2F2F2;stroke-width:43;stroke-miterlimit:10;
		animation: aninubes 6.5s infinite;
		-o-animation: aninubes 6.5s infinite;
		-moz-animation: aninubes 6.5s infinite;
		-webkit-animation: aninubes 6.5s infinite;
		transition: transform 6.5s ease-in-out;
	}
	.nub6{
		opacity:0.15;fill:#F2F2F2;stroke:#F2F2F2;stroke-width:43;stroke-miterlimit:10;
		animation: aninubes 7s infinite;
		-o-animation: aninubes 7s infinite;
		-moz-animation: aninubes 7s infinite;
		-webkit-animation: aninubes 7s infinite;
		transition: transform 7s ease-in-out;
	}
	.nub7{
		opacity:0.15;fill:#F2F2F2;stroke:#F2F2F2;stroke-width:43;stroke-miterlimit:10;
		animation: aninubes 8s infinite;
		-o-animation: aninubes 8s infinite;
		-moz-animation: aninubes 8s infinite;
		-webkit-animation: aninubes 8s infinite;
		transition: transform 8s ease-in-out;
	}
	.nub8{
		opacity:0.15;fill:#F2F2F2;stroke:#F2F2F2;stroke-width:43;stroke-miterlimit:10;
		animation: aninubes 6.8s infinite;
		-o-animation: aninubes 6.8s infinite;
		-moz-animation: aninubes 6.8s infinite;
		-webkit-animation: aninubes 6.8s infinite;
		transition: transform 6.8s ease-in-out;
	}
	.nub9{
		opacity:0.15;fill:#F2F2F2;stroke:#F2F2F2;stroke-width:43;stroke-miterlimit:10;
		animation: aninubes 7.7s infinite;
		-o-animation: aninubes 7.7s infinite;
		-moz-animation: aninubes 7.7s infinite;
		-webkit-animation: aninubes 7.7s infinite;
		transition: transform 7.7s ease-in-out;
	}
	.nub10{
		opacity:0.15;fill:#F2F2F2;stroke:#F2F2F2;stroke-width:43;stroke-miterlimit:10;
		animation: aninubes 8.3s infinite;
		-o-animation: aninubes 8.3s infinite;
		-moz-animation: aninubes 8.3s infinite;
		-webkit-animation: aninubes 8.3s infinite;
		transition: transform 8.3s ease-in-out;
	}
	.nub11{
		opacity:0.15;fill:#F2F2F2;stroke:#F2F2F2;stroke-width:43;stroke-miterlimit:10;
		animation: aninubes 6.4s infinite;
		-o-animation: aninubes 6.4s infinite;
		-moz-animation: aninubes 6.4s infinite;
		-webkit-animation: aninubes 6.4s infinite;
		transition: transform 6.4s ease-in-out;
	}
	.nub12{
		opacity:0.15;fill:#F2F2F2;stroke:#F2F2F2;stroke-width:43;stroke-miterlimit:10;
		animation: aninubes 7.6s infinite;
		-o-animation: aninubes 7.6s infinite;
		-moz-animation: aninubes 7.6s infinite;
		-webkit-animation: aninubes 7.6s infinite;
		transition: transform 7.6s ease-in-out;
	}
	.nub13{
		opacity:0.15;fill:#F2F2F2;stroke:#F2F2F2;stroke-width:43;stroke-miterlimit:10;
		animation: aninubes 8.5s infinite;
		-o-animation: aninubes 8.5s infinite;
		-moz-animation: aninubes 8.5s infinite;
		-webkit-animation: aninubes 8.5s infinite;
		transition: transform 8.5s ease-in-out;
	}
	.nub14{
		opacity:0.15;fill:#F2F2F2;stroke:#F2F2F2;stroke-width:43;stroke-miterlimit:10;
		animation: aninubes 9s infinite;
		-o-animation: aninubes 9s infinite;
		-moz-animation: aninubes 9s infinite;
		-webkit-animation: aninubes 9s infinite;
		transition: transform 9s ease-in-out;
	}
	.st7{opacity:0.15;fill:#E6E6E6;}
	.st8{opacity:0.15;fill:#E6E6E6;stroke:#A6B58F;stroke-miterlimit:10;}
	.st9{fill:#28124C;stroke:#22B573;stroke-miterlimit:10;}
	.st10{
		fill:#00A99D;
	}
	.st11{fill:none;stroke:#F2F2F2;stroke-miterlimit:10;}
	.st12{fill:#22B573;}
	.st13{fill:#22B573;stroke:#F2F2F2;stroke-miterlimit:10;}
	.st14{fill:#8CC63F;}
	.st15{fill:#8CC63F;stroke:#F2F2F2;stroke-miterlimit:10;}
	.st16{
		fill:#1D1B4C;
	}
	.st17{fill:none;stroke:#1D1B4C;stroke-width:2;stroke-miterlimit:10;}
	.st18{fill:#A67C52;}
	.st19{fill:#AF9B98;}
	.st20{fill:#C6A199;}
	.st21{fill:#333333;}
	.st22{fill:#03776C;}
	.st23{fill:#292842;}
	.st24{fill:#3C3C56;}
	.st25{fill:#4D9191;}
	.st26{display:none;fill:#00A99D;}
	.st27{fill:#445646;}
	.st28{fill:#068E61;}
	.bordetecho{
		fill:none;
		stroke:#1B1464;
		stroke-width:10;
		stroke-dasharray:1750;
		stroke-dashoffset:0;
		stroke-miterlimit:10;
		animation: anibordetecho 5s infinite;
		-o-animation: anibordetecho 5s infinite;
		-moz-animation: anibordetecho 5s infinite;
		-webkit-animation: anibordetecho 5s infinite;
	}
	.techoizq{
		fill:#1D1B4C; 
		stroke-width: 0; 
		stroke: #00A99D;
		animation: anitechoizq 5s forwards;
		-o-animation: anitechoizq 5s forwards;
		-moz-animation: anitechoizq 5s forwards;
		-webkit-animation: anitechoizq 5s forwards;
	}
	.techoder{
		fill:#00A99D; 
		stroke-width: 0; 
		stroke: #1D1B4C;
		animation: anitechoder 5s forwards;
		-o-animation: anitechoder 5s forwards;
		-moz-animation: anitechoder 5s forwards;
		-webkit-animation: anitechoder 5s forwards;
	}
	.st30{opacity:6.000000e-02;fill:#F2F2F2;}
	.st31{opacity:3.000000e-02;fill:#F2F2F2;stroke:#F2F2F2;stroke-width:43;stroke-miterlimit:10;}

	<!-- animación bordetecho -->
@keyframes anibordetecho{
	0%{
		stroke: #00A99D;
		stroke-dashoffset:1750;
		transition: stroke-dashoffset 4s
	}
	25%{
		transition: stroke-dashoffset 4s;
		stroke: #00A99D;
		stroke-dashoffset:0;
	}
	50%{
		stroke: #00A99D;
		stroke-dashoffset:1750;
		transition: stroke-dashoffset 4s
	}
	75%{
		transition: stroke-dashoffset 4s;
		stroke: #1D1B4C;
		stroke-dashoffset:0;
	}
	100%{
		transition: stroke-dashoffset 4s;
		stroke: #1D1B4C;
		stroke-dashoffset:0;
	}
}
<!-- animación relleno techo casa -->
@keyframes anitechoizq{
	from{
		fill:transparent;
	}
	to{
		fill:#1D1B4C;
	}
}
@keyframes anitechoder{
	from{
		fill:transparent;
	}
	to{
		fill:#00A99D;
	}
}
<!-- animación nubes -->
@keyframes aninubes{
	0%{
		stroke-width:43;
		transform: translateY(20px);
		transition: transform 4s ease-in-out;
	}
	25%{
		stroke-width:30;
		transform: translateY(0px);
		transition: transform 4s ease-in-out;
	}
	50%{
		stroke-width:43;
		transform: translateY(20px);
		transition: transform 4s ease-in-out;
	}
	75%{
		stroke-width:30;
		transform: translateY(0px);
		transition: transform 4s ease-in-out;
	}
	100%{
		stroke-width:43;
		transform: translateY(20px);
		transition: transform 4s ease-in-out;
	}
}

</style>
<g id="fondo_1_" class="st0">
	<g class="st1">
		<linearGradient id="SVGID_1_" gradientUnits="userSpaceOnUse" x1="574.4253" y1="-139.8794" x2="452.5747" y2="1252.8794">
			<stop  offset="0" style="stop-color:#00A99D"/>
			<stop  offset="1" style="stop-color:#1B1464"/>
		</linearGradient>
		<rect x="-289" y="-75" class="st2" width="1605" height="1263"/>
	</g>
</g>
<g id="nube">
	<circle class="nub14" cx="746.5" cy="764.5" r="145.5"/>
	<circle id="nub13" class="nub13" cx="543.2" cy="747.2" r="101.3"/>
	<circle id="nub12" class="nub12" cx="639" cy="786.8" r="160.1"/>
	<circle id="nub11" class="nub11" cx="369.4" cy="676.3" r="79.3"/>
	<circle id="nub10" class="nub10" cx="548.4" cy="645.3" r="79.3"/>
	<circle id="nub9" class="nub9" cx="393.1" cy="795.1" r="102.6"/>
	<circle id="nub8" class="nub8" cx="296" cy="857" r="145.5"/>
	<circle id="nub7" class="nub7" cx="495" cy="855" r="145.5"/>
	<circle id="nub6" class="nub6" cx="852.4" cy="919.2" r="79.3"/>
	<circle id="nub5" class="nub5" cx="137.4" cy="919.2" r="79.3"/>
	<circle id="nub4" class="nub4" cx="150.4" cy="731.2" r="79.3"/>
	<circle id="nub3" class="nub3" cx="159.4" cy="795.2" r="79.3"/>
	<circle id="nub2" class="nub2" cx="255.4" cy="715.2" r="79.3"/>
	<circle id="nub1" class="nub1" cx="694.5" cy="861.5" r="131"/>
</g>
<g id="decoracion">
	<g id="rama1">
		<path class="st7" d="M539.5,652.4c-10.2,14.8-45.6,30.5-52.1,33.4c-13.5,6.2-31.5,16.7-50.6,35.9c18-20.9,26.2-39.9,30.3-53.7
			c2.6-8.5,12.6-45.3,26.4-54.7c3.6-2.5,7.4-3.6,7.4-3.6c7.5-2.3,14.4-0.6,19.2,0.6c3.9,1,6.2,1.6,9.2,3.2
			c7.9,4.5,11.3,11.8,12.4,14.5c1.1,2.6,2.7,6,2.6,10.7C544.2,645.5,540.8,650.5,539.5,652.4z"/>
		<path class="st7" d="M331.1,697.9c17.9,1.6,48.9,24.7,54.7,28.9c12,8.7,30.1,19.2,56.1,26.5c-27.1-5.4-47.6-3.2-61.7,0
			c-8.7,2-45.6,11.2-60.6,3.9c-3.9-1.9-6.8-4.7-6.8-4.7c-5.7-5.4-7.6-12.3-8.9-17c-1.1-3.8-1.7-6.2-1.7-9.6c0-9.1,4.8-15.6,6.5-18
			c1.7-2.3,4-5.3,8-7.5C322.7,697.2,328.8,697.7,331.1,697.9z"/>
		<path class="st7" d="M343.6,544.3c0.9,18-17.7,51.9-21,58.2c-6.9,13.1-14.9,32.4-18.4,59.3c1.6-27.5-3.5-47.6-8.6-61.1
			c-3.1-8.3-17.5-43.6-12.3-59.5c1.4-4.2,3.7-7.4,3.7-7.4c4.6-6.4,11.1-9.2,15.6-11.2c3.7-1.6,5.9-2.5,9.2-3c9-1.2,16.1,2.5,18.7,4
			c2.5,1.4,5.8,3.2,8.6,6.9C343.2,535.9,343.4,542,343.6,544.3z"/>
		<path class="st7" d="M273.9,452.6c0.9,18-17.7,51.9-21,58.2c-6.9,13.1-14.9,32.4-18.4,59.3c1.6-27.5-3.5-47.6-8.6-61.1
			c-3.1-8.3-17.5-43.6-12.3-59.5c1.4-4.2,3.7-7.4,3.7-7.4c7-9.8,12.1-11.6,15.6-11.2c6.2,0.7,8,8.2,14.2,8.1
			c6.1-0.1,7.9-7.7,13.8-7.1c4.1,0.4,6.7,4.4,8.6,6.9C273.5,444.2,273.8,450.3,273.9,452.6z"/>
		<path class="st7" d="M452.1,558.1c2,17.9-14.3,52.9-17.3,59.4c-6.1,13.5-12.8,33.3-14.6,60.3c-0.2-27.6-6.5-47.3-12.5-60.4
			c-3.7-8.1-20.2-42.4-16.1-58.6c1.1-4.2,3.2-7.6,3.2-7.6c6.3-10.2,11.4-12.2,14.9-12.1c5.1,0.1,6.4,4.8,12.2,4.9
			c7.1,0.2,9.2-6.6,15.7-5.7c4.3,0.6,7.1,4.1,9,6.3C451.2,549.8,451.9,555.8,452.1,558.1z"/>
		<path class="st7" d="M73.9,502.6c17.9,1.6,48.9,24.7,54.7,28.9c12,8.7,30.1,19.2,56.1,26.5c-27.1-5.4-47.6-3.2-61.7,0
			c-8.7,2-45.6,11.2-60.6,3.9c-3.9-1.9-6.8-4.7-6.8-4.7c-0.9-0.9-11.1-10.2-8.9-17c2.1-6.3,13.2-4.9,14.4-10.2
			c1.3-5.8-10.8-10.4-9.5-17.3c0.7-3.8,5.2-6,8-7.5C65.5,501.9,71.6,502.4,73.9,502.6z"/>
		<path class="st7" d="M188.7,347.8c3.5,17.6-9.9,53.9-12.2,60.7c-4.9,14-9.9,34.3-9.5,61.3c-2.5-27.5-10.5-46.6-17.5-59.1
			c-4.3-7.8-23.7-40.6-20.9-57.1c0.7-4.3,2.5-7.9,2.5-7.9c1.8-3.5,4.2-6.2,6.7-8.3c3.5-3,5-4.9,7.1-5c5-0.3,6.2,7.1,11.2,7.6
			c6.3,0.6,9-10.8,16.6-10.8c4.1,0,7.3,3.3,9.5,5.6C187,339.6,188.2,345.5,188.7,347.8z"/>
		<path class="st7" d="M189.3,609.9c17.9,1.6,48.9,24.7,54.7,28.9c12,8.7,30.1,19.2,56.1,26.5c-27.1-5.4-47.6-3.2-61.7,0
			c-8.7,2-45.6,11.2-60.6,3.9c-3.9-1.9-6.8-4.7-6.8-4.7c-3.7-3.7-11-11.8-8.9-17c2.6-6.4,16.6-3.5,18-8.5c1.5-5.4-14.4-11.4-13.1-19
			c0.6-3.8,5.2-6,8-7.5C180.9,609.1,187,609.7,189.3,609.9z"/>
		<path class="st7" d="M127.5,417.6c12.1,13.3,19.5,51.2,21,58.2c3,14.5,9.3,34.5,23.7,57.3c-16.4-22.2-33.1-34.4-45.6-41.5
			c-7.7-4.4-41.3-22.4-47.5-37.9c-1.6-4.1-1.9-8-1.9-8c-0.4-9.1,0.7-16.6,4.9-18.6c3.6-1.7,6.6,2.1,10.8,0.5
			c6.6-2.6,4-13.7,11.3-17.6c3.8-2,8.1-0.9,11-0.2C121.9,411.4,126,415.9,127.5,417.6z"/>
		<path class="st8" d="M519,832.3c-43-18-62.2-48.7-71.7-73.3c-16.5-42.5-6.2-71.5-29.2-88.1c-32.7-23.6-70.5,22.8-104.9,2.6
			c-36.3-21.3-6.9-80.2-47.1-100.9c-25.7-13.3-45.6,6.9-70-5.8c-30.2-15.7-32.5-63.8-29.2-103.5"/>
	</g>
	<g id="rama2">
		<path class="st9" d="M454.5,893.5c32.2-82,94.7-209.8,214.6-331.7c80.8-82.2,162.9-136.5,226.5-171.5"/>
		<line class="st9" x1="770.2" y1="468.9" x2="836" y2="359.2"/>
		<line class="st9" x1="705" y1="526.9" x2="753.6" y2="408.6"/>
		<line class="st9" x1="640.3" y1="593.5" x2="668.8" y2="468.8"/>
		<line class="st9" x1="584.2" y1="660.5" x2="594.7" y2="533"/>
		<line class="st9" x1="533.4" y1="735.1" x2="528.7" y2="607.2"/>
		<line class="st9" x1="488.6" y1="816.1" x2="466.3" y2="690.2"/>
		<line class="st9" x1="657.7" y1="700.5" x2="534.6" y2="735.5"/>
		<line class="st9" x1="614.5" y1="780.2" x2="491.5" y2="815.2"/>
		<line class="st9" x1="711.1" y1="632.1" x2="586.1" y2="659.3"/>
		<line class="st9" x1="769.5" y1="577.1" x2="642.8" y2="594.7"/>
		<line class="st9" x1="834.8" y1="522.3" x2="707" y2="527"/>
		<line class="st9" x1="896.7" y1="454.3" x2="770" y2="471.9"/>
	</g>
	<g id="planta">
		<g id="hojas">
			<path id="hoja3b_2_" class="st10" d="M172.5,832.5c-0.2,2.7-0.9,2.6-0.8,5.3c0.2,5.3,3.8,8.5,3.1,17.3
				c-1.1,13.7-10.5,15.4-8.4,25c1.8,8.1,8.7,7.8,15.1,19.5c3.8,6.9,6,15.6,4.2,22.7c-2.7,10.7-11.9,11.7-22.2,26.4
				c-4.5,6.4-7.1,12.4-8.6,16.4c-1.8-0.6-3.6-1.2-5.5-1.9c-1.7-2.1-4.2-5.2-7.1-9.1c-13.9-18.5-20.8-27.8-19.9-37.1
				c1.1-11.8,11-12.7,10.9-22.2c-0.1-10.5-11-12.3-12.2-24.5c-0.9-8.9,4.8-9.1,5.5-19.5c1-14.6-10-17.5-8.4-31.2
				c0.2-1.9,0.8-7,4.3-12.2c3.4-5,8-4.6,8.9-8.2c1.1-4.2-4.3-5.9-5.5-12.5c-1.4-8.2,5.3-15.8,7.3-18c0.9-1,4.3-4.7,10.1-7.3
				c3-1.4,12.7-5.9,23.1-1.7c7.6,3.1,11.4,9.3,12.6,11.3c6.1,10.3,3.5,21.1,3.1,22.4c-3.2,12.6-12.8,13.6-12.2,22.9
				C170.3,821,173.1,824.4,172.5,832.5z"/>
			<path id="hoja3a_2_" class="st11" d="M152.1,956.8c-1.6-5.1-3.3-13-1.5-22c2.1-10.4,6.7-11.7,7.8-19.9
				c1.8-13.9-10.4-17.2-10.7-32.1c-0.2-14.6,11.4-17.6,9.6-30.2c-1.7-12.2-12.9-11.9-16.4-25.4c-3.7-14.2,5.2-28.6,10.9-38
				c5-8.2,10.6-14,14.5-17.6"/>
			<path id="hoja2b_2_" class="st12" d="M247.1,868c-1.8,2.1-2.3,1.6-3.7,3.8c-2.9,4.5-1.8,9.1-7.4,15.9
				c-8.8,10.6-17.5,6.5-21.3,15.6c-3.2,7.6,2.6,11.4,1.1,24.6c-0.9,7.8-4.1,16.2-9.7,21c-8.4,7.1-16.4,2.7-33.4,8.8
				c-7.4,2.6-13,6-16.5,8.4c-1.1-1.6-2.3-3.1-3.4-4.7c-0.2-2.7-0.5-6.7-0.6-11.5c-0.7-23.1-1-34.7,5.1-41.8c7.7-9,16.4-4,21.7-11.9
				c5.9-8.6-1.9-16.4,4.2-27.1c4.4-7.8,9.1-4.7,15.7-12.8c9.2-11.4,1.9-20.1,11.1-30.3c1.3-1.5,4.7-5.3,10.6-7.5
				c5.7-2.1,9.2,0.9,12-1.5c3.3-2.8-0.1-7.3,2.7-13.3c3.6-7.6,13.5-9.8,16.4-10.5c1.4-0.3,6.2-1.3,12.5-0.2
				c3.3,0.6,13.8,2.5,19.8,11.9c4.4,7,3.9,14.2,3.8,16.5c-1,11.9-9.3,19.3-10.4,20.2c-9.9,8.5-18.3,3.7-23.1,11.7
				C251.9,857.4,252.3,861.8,247.1,868z"/>
			<path id="hoja2a_2_" class="st13" d="M158.8,957.8c1.6-5.1,4.8-12.5,11.5-18.8c7.7-7.3,12.2-5.7,17.8-11.8
				c9.5-10.3,1.4-20,9.8-32.4c8.2-12.1,19.4-7.8,25.3-19.1c5.7-11-3.7-17.2,1.3-30.2c5.2-13.7,20.7-20.4,30.8-24.7
				c8.9-3.8,16.7-5.4,22-6.1"/>
			<path id="hoja1b_2_" class="st14" d="M87.2,906.4c1.3,1.3,1.7,1,2.7,2.3c2.1,2.7,1.3,5.4,5.5,9.5c6.5,6.3,12.9,3.8,15.7,9.3
				c2.4,4.5-1.9,6.8-0.8,14.7c0.7,4.7,3.1,9.7,7.1,12.5c6.2,4.2,12.1,1.6,24.5,5.2c5.4,1.6,9.5,3.6,12.1,5c0.8-0.9,1.7-1.9,2.5-2.8
				c0.1-1.6,0.3-4,0.4-6.9c0.4-13.8,0.7-20.7-3.9-24.9c-5.7-5.3-12-2.4-16-7c-4.4-5.1,1.3-9.8-3.2-16.1c-3.3-4.6-6.7-2.8-11.5-7.6
				c-6.8-6.8-1.5-12-8.2-18.1c-1-0.9-3.5-3.1-7.8-4.5c-4.2-1.3-6.7,0.5-8.8-0.9c-2.4-1.7,0.1-4.4-2-7.9c-2.6-4.5-9.9-5.8-12.1-6.2
				c-1-0.2-4.6-0.8-9.1-0.1c-2.4,0.4-10.1,1.5-14.5,7.2c-3.2,4.2-2.9,8.5-2.7,9.9c0.8,7.1,6.9,11.5,7.7,12c7.3,5,13.5,2.2,17,6.9
				C83.6,900,83.3,902.7,87.2,906.4z"/>
			<path id="hoja1a_2_" class="st15" d="M152.2,959.8c-1.2-3-3.6-7.5-8.5-11.2c-5.7-4.3-9-3.4-13.1-7c-7-6.1-1.1-12-7.2-19.3
				c-6.1-7.2-14.3-4.6-18.6-11.4c-4.2-6.5,2.7-10.2-1-18c-3.9-8.2-15.3-12.1-22.7-14.7c-6.5-2.3-12.3-3.2-16.2-3.6"/>
		</g>
		<g id="talloyhojasplanta">
			<path class="st16" d="M195.7,917.5c-6.7,2.7-22,0.2-24.8-0.2c-5.9-0.9-14.2-1.3-24.8,0.9c10.6-3.1,17.5-7.6,21.9-11.4
				c2.7-2.3,14.2-12.4,20.8-12.6c1.8,0,3.3,0.4,3.3,0.4c3,0.9,5,3,6.3,4.4c1.1,1.2,1.7,1.9,2.4,3.1c1.7,3.2,1.2,6.4,1,7.6
				c-0.2,1.1-0.4,2.6-1.5,4.2C198.8,916.2,196.6,917.2,195.7,917.5z"/>
			<path class="st16" d="M115.9,887.1c5.6,4.5,11,19,12,21.7c2.1,5.5,5.9,13,13,21.2c-7.9-7.7-15.3-11.5-20.7-13.5
				c-3.3-1.2-17.8-6.2-21.2-12c-0.9-1.5-1.3-3.1-1.3-3.1c-0.7-3.1,0.2-5.8,0.8-7.7c0.5-1.5,0.8-2.4,1.5-3.6c2-3,5-4.2,6.1-4.6
				c1.1-0.4,2.5-0.9,4.3-0.8C113.2,885,115.1,886.5,115.9,887.1z"/>
			<path class="st16" d="M153.7,838.3c-3.6,6.2-17.3,13.5-19.8,14.9c-5.2,2.9-12.1,7.6-19.2,15.8c6.6-8.9,9.3-16.7,10.5-22.3
				c0.8-3.5,3.7-18.5,8.9-22.6c1.4-1.1,2.9-1.7,2.9-1.7c2.9-1.1,5.7-0.7,7.7-0.3c1.6,0.3,2.5,0.4,3.8,1c3.3,1.6,4.8,4.4,5.4,5.4
				c0.5,1,1.2,2.3,1.4,4.2C155.4,835.4,154.2,837.5,153.7,838.3z"/>
			<path class="st16" d="M150.5,792.3c-3.6,6.2-17.3,13.5-19.8,14.9c-5.2,2.9-12.1,7.6-19.2,15.8c6.6-8.9,9.3-16.7,10.5-22.3
				c0.8-3.5,3.7-18.5,8.9-22.6c1.4-1.1,2.9-1.7,2.9-1.7c2.9-1.1,5.7-0.7,7.7-0.3c1.6,0.3,2.5,0.4,3.8,1c3.3,1.6,4.8,4.4,5.4,5.4
				c0.5,1,1.2,2.3,1.4,4.2C152.2,789.4,151,791.5,150.5,792.3z"/>
			<path class="st16" d="M187.1,866.7c-3.2,6.4-16.4,14.6-18.8,16.1c-5,3.2-11.6,8.4-18.1,17c6-9.3,8.2-17.3,9.1-23
				c0.5-3.5,2.5-18.7,7.5-23.2c1.3-1.2,2.7-1.9,2.7-1.9c2.9-1.3,5.7-1,7.6-0.8c1.6,0.2,2.5,0.3,3.8,0.8c3.4,1.4,5.1,4.1,5.7,5.1
				c0.6,1,1.4,2.3,1.6,4.1C188.6,863.7,187.5,865.9,187.1,866.7z"/>
			<path class="st16" d="M74.8,772c5.6,4.5,11,19,12,21.7c2.1,5.5,5.9,13,13,21.2c-7.9-7.7-15.3-11.5-20.7-13.5
				c-3.3-1.2-17.8-6.2-21.2-12c-0.9-1.5-1.3-3.1-1.3-3.1c-0.7-3.1,0.2-5.8,0.8-7.7c0.5-1.5,0.8-2.4,1.5-3.6c2-3,5-4.2,6.1-4.6
				c1.1-0.4,2.5-0.9,4.3-0.8C72.1,769.9,74,771.4,74.8,772z"/>
			<path class="st16" d="M142.9,741.5c-2.7,6.7-15.1,15.9-17.4,17.6c-4.7,3.6-10.8,9.3-16.6,18.5c5.2-9.8,6.7-17.9,7.1-23.7
				c0.3-3.6,1-18.8,5.5-23.7c1.2-1.3,2.6-2.1,2.6-2.1c2.7-1.6,5.6-1.5,7.6-1.4c1.6,0,2.6,0.1,3.9,0.5c3.5,1.1,5.4,3.6,6.1,4.6
				c0.7,0.9,1.6,2.1,2,3.9C144.2,738.4,143.3,740.6,142.9,741.5z"/>
			<path class="st16" d="M87.7,826.5c5.6,4.5,11,19,12,21.7c2.1,5.5,5.9,13,13,21.2c-7.9-7.7-15.3-11.5-20.7-13.5
				c-3.3-1.2-17.8-6.2-21.2-12c-0.9-1.5-1.3-3.1-1.3-3.1c-0.7-3.1,0.2-5.8,0.8-7.7c0.5-1.5,0.8-2.4,1.5-3.6c2-3,5-4.2,6.1-4.6
				c1.1-0.4,2.5-0.9,4.3-0.8C85,824.4,86.9,825.9,87.7,826.5z"/>
			<path class="st16" d="M105.3,737.9c2.1,6.9-1.9,21.9-2.6,24.6c-1.4,5.8-2.7,14-1.5,24.8c-2-10.9-5.9-18.2-9.2-22.9
				c-2-2.9-11-15.3-10.5-22c0.1-1.8,0.7-3.2,0.7-3.2c1.2-2.9,3.4-4.7,5-5.8c1.3-1,2-1.6,3.3-2.1c3.4-1.3,6.5-0.6,7.7-0.3
				c1.1,0.3,2.6,0.7,4,1.9C104.4,734.7,105.1,737,105.3,737.9z"/>
			<path class="st17" d="M149.4,973.3c-10.5-15.5-10.1-30-8-40.3c3.8-17.9,13.6-25.3,9.5-35.9c-5.8-15.1-28.6-7.8-35.7-22.1
				c-7.5-15.1,15.3-28.4,6.3-44.1c-5.7-10.1-16.8-7.7-22.2-17.3c-6.7-11.9,3.1-28.5,12.9-41.1"/>
		</g>
		<path id="maceta_2_" class="st18" d="M174.1,1039h-29.7c-15.1,0-27.3-12.2-27.3-27.3v-52.8h80.1v57.1
			C197.2,1028.7,186.9,1039,174.1,1039z"/>
	</g>
</g>
<g id="hombre">
	<path class="st19" d="M366.1,575.5c1.8,2.6,5.3,6.6,10.9,9.5c2.7,1.4,7.4,3.8,13.8,3.2c1.9-0.2,5.4-0.8,9.3-3.2
		c1.6,7.2,3.2,14.4,4.7,21.6c-12.7,1.9-25.4,3.9-38.2,5.8C366.5,600.1,366.3,587.8,366.1,575.5z"/>
	<path class="st20" d="M359.7,540.2c3.7-13.8,17.4-29.7,33.4-28.3c17.2,1.5,26,22,28.3,33.4c4.7,22.8-7.6,50.6-23.1,52.9
		c-15.3,2.3-29-17.7-30.7-20.2C364.9,574.1,354.7,558.7,359.7,540.2z"/>
	<path class="st21" d="M423.7,523.5c-6.9,12.8-34.1,8.5-41,7.3c-0.2,0-0.7-0.3-1.4-0.3c-4.6,0-8.4,8.6-11.1,17
		c-0.7-0.2-4.2-1.3-6.2,0.4c-2.4,2-2.5,7.6,1.8,12.7c0.1,5,0.1,10,0.2,14.9c-7.8-13.3-10.9-25-12.3-32.5c-2.3-12.2-3.1-19.8,1-26.5
		c4.6-7.4,12.8-9.5,22.4-12c4.4-1.1,37.6-9.7,46.1,4.7C425.9,513.5,425.9,519.4,423.7,523.5z"/>
	<path class="st20" d="M250.5,657.6c-11.3-21-16.9-41.3-19.6-58.3c-0.2-26.5-1.4-39.9-3.7-40.1c-1.3-0.1-3.1,4.4-5.1,13.4
		c-3.1-0.9-7.2-2.8-11.3-6.7c-6.8-6.6-8.7-15.1-10.3-14.7c-1.4,0.3-1.4,7.8-0.6,15.9c1.3,12.3,3.9,18.1,6.2,30.8
		c1.2,6.5,1.8,11.9,2.1,15.4c0.7,4.8,1.2,8.5,1.6,11c0,0,0,0,0,0c0,0,0.5,3,1,6c3.7,19.3,13.2,68.1,39.5,79.8
		c6.5,2.9,12.6,2.9,17.6,2.1c-0.3-7.9-1.5-17.8-4.9-28.6c-1.5-5-3.3-9.5-5.1-13.4C255.4,666.3,252.9,662.1,250.5,657.6z"/>
	<path class="st20" d="M506.7,689.5c19.2,7,35.3,16.1,48.5,25.2c18.9,18.6,29.2,27.2,30.9,25.7c1-0.9-0.9-5.2-5.9-13.1
		c2.9-1.5,7.1-3.1,12.7-3.2c9.4-0.2,16.8,4.5,17.7,3.2c0.8-1.2-4.5-6.5-10.8-11.6c-9.7-7.8-15.5-10.1-26.1-17.4
		c-5.5-3.8-9.7-7.2-12.3-9.4c-3.9-2.9-6.9-5.1-8.9-6.7c0,0,0,0,0,0c0,0-0.6-0.5-1.6-1.1c0,0-1.7-1.2-3.5-2.4
		c-10.5-7.2-19.4-12-19.4-12c-3.6-2-8.2-4.4-13.8-6.9c-3.2,1.9-8.5,5.7-13,12.2c-3.6,5.3-5.3,10.4-6.1,13.8
		C499,686.8,502.8,688,506.7,689.5z"/>
	<path class="st10" d="M253.9,672.4c-5.9,16.4-2.3,32.3,6.8,37.9c11.8,7.2,28.9-5.1,36.3-10.4c13.7-9.9,20.3-22.6,23.3-29.5
		c3.1,10.3,6,21.4,8.5,33.1c5.9,27.2,8.6,52.3,9.5,74.4c11.3,4.6,29.1,10,51,9.3c30.3-1,53.2-13.2,64.9-20.7
		c-0.8-20-0.8-41.7,0.6-64.9c0.7-12.2,1.8-23.9,3.1-35.1c5.7,9.6,38.5,21.6,42.8,21.4c8.2-7.9,16.3-15.8,24.5-23.7
		c-2.9-2.1-7.4-5.3-13-9.2c-15-10.2-17.1-10.4-23.7-16c-7.9-6.8-7.6-8.8-15.3-14.5c-2.8-2-7-4.9-14.5-8.4c-17.5-8.2-37.7-13-46.9-15
		c-2,0.8-4.9,1.8-8.6,2.9c-6.6,2-10,3-14.4,3.1c-4.5,0.1-8-0.8-14.9-2.6c-4.3-1.1-7.8-2.3-10.2-3.2c-20.5,2.4-33.5,9.3-41.4,15.1
		c-2.5,1.8-7.7,5-15.6,13.8c-7.1,7.9-16.1,16.7-27.3,25.3C270.3,662.5,261.7,668,253.9,672.4z"/>
	<path class="st22" d="M365.7,599.9c1.3,0.3,3.3,0.8,5.6,1.5c2.7,0.8,3.2,1,5.1,1.5c2.7,0.7,4.6,1.3,7.2,1.5c1.9,0.2,3.7,0.1,7.2,0
		c3.2-0.1,4.8-0.2,6.7-0.5c3.2-0.6,5.6-1.4,7.2-2.1c1.9-0.7,3.5-1.5,4.6-2.1c0.9,0.3,1.7,0.7,2.6,1c-4.2,2.4-8,3.8-10.8,4.6
		c-3.7,1.1-6.6,1.5-7.2,1.5c-1.6,0.2-5.4,0.6-10.3,0c-3.1-0.4-5.7-1.1-10.8-2.6c-3.7-1.1-7-2.1-9.7-3.1
		C363.9,600.9,364.8,600.4,365.7,599.9z"/>
	<path class="st23" d="M361.5,907.6c1.9-4.1,5.8-6.9,10.3-7.2c4.9-0.3,9.7,2.5,11.8,7.2c0.6,5,1.1,10.1,1.5,15.4
		c0.4,4.9,0.8,9.7,1,14.4c0.2,7.4-2.7,13.7-6.7,14.9c-4.9,1.5-13.4-4.3-15.9-15.9C362.9,926.8,362.2,917.2,361.5,907.6z"/>
	<path class="st20" d="M428.7,907.5c4.9-5.5,6.7-11.4,4.7-15.4c-2.3-4.4-9-5.7-16.8-3.1c-7.5,4.2-15.2,8.6-23,13.2
		c-7.3,4.3-14.4,8.5-21.2,12.7c-10.8,6.8-18.2,15.2-17.8,19.6c0.6,5.5,13.5,7.2,31.6-1.7C400.3,924.4,414.5,915.9,428.7,907.5z"/>
	<path class="st23" d="M351.9,928.1c0.2-1.1,1.5-7.5,7.6-11.3c4.5-2.8,9-2.6,10.5-2.4c-4.8,4.7-5.2,11.9-1.5,16.4
		c2.9,3.6,8,5,12.8,3.6c-0.4,2.6-0.8,6.1-1,10.3c-0.3,5.1-0.6,9.7,0,14.9c1.3,11.4,5.8,15.5,3.5,18c-2.3,2.5-8.6,0.7-12.2-1.5
		c-6.9-4.2-8.1-12.2-8.3-13.6C359.5,950.9,355.7,939.5,351.9,928.1z"/>
	<path class="st20" d="M361,889.9c1.8-1.9,5.5-3.2,9.6-3.3c4.6-0.1,9,1.2,11.1,3.3c0.5,2.3,1,4.7,1.4,7.1c0.4,2.3,0.7,4.5,1,6.6
		c0.2,3.4-2.5,6.3-6.2,6.9c-4.6,0.7-12.6-2-14.9-7.4C362.3,898.8,361.7,894.3,361,889.9z"/>
	<path class="st23" d="M335.9,804c4.8,25.3,11.8,57.2,22.1,93.8c10.8,1,21.5,2.1,32.3,3.1c-0.8-9.6-1.5-19.5-2.1-29.7
		c-0.7-14.5-1.1-28.5-1.1-41.9c6.2-5.2,12.4-10.3,18.6-15.5c4,4.3,10.8,10.5,20.5,15.4c17.4,8.7,29.6,5.5,31.8,10.3
		c2.4,5.1-7.5,18.4-64.1,55.4c11.6,7,23.2,14,34.9,21c37.7-13.3,64.6-30.9,82-44.6c22.3-17.5,41.3-32.3,39-48.7
		c-2.4-17.2-26.2-30.6-57.4-42c-12.6-4.6-25.3-9.2-37.9-13.8c-11.3,6.8-21.3,11.1-28.7,13.8c-12.6,4.6-19,5.2-23.6,5.1
		c-5.8-0.1-10.6-1.1-13.8-2.1c1.5-20,1.2-36.7,0.5-49.2c-0.7-13.3-1.9-20.7-7.2-27.7c-0.5-0.6-11.1-14.2-23.6-12.3
		c-11.3,1.8-17.5,15.8-20.5,23.1C326.1,744.1,329.6,770.8,335.9,804z"/>
	<path class="st21" d="M369.9,547.2c-0.1,3.1-0.4,7.9-0.8,13.8c-0.9,12.7-1.4,15.1,0,19.1c2.2,6.1,6.7,9.7,9.9,12.2
		c4.2,3.3,8.8,7,15.3,6.9c7.6-0.1,12.9-5.3,15.3-7.6c4.3-4.3,6.1-8.7,8.4-14.5c1.6-4.1,3.6-10.3,4.6-18.3c-0.6,2.7-1.8,6.6-4.6,10.7
		c-1.8,2.7-3.7,4.7-5.3,6.1c-2.3-1-4.6-2-6.9-3.1c-4.1,3.1-8.2,6.1-12.2,9.2c-3.2-1.3-11.5-5.2-17.6-14.5
		C370.7,558.8,370,550.7,369.9,547.2z"/>
</g>
<g id="mujer">
	<path class="st20" d="M532.6,869.1c1.8-3.1,1.9-7.8,0.3-12.1c-1.9-4.8-5.6-8.4-9.5-8.9c-3.4,1.1-6.9,2.3-10.4,3.5
		c-3.3,1.2-6.4,2.4-9.5,3.7c-4.8,2.2-7.5,7-6.6,11.2c1.1,5.1,8.3,11.4,16.7,9.9C519.9,874,526.2,871.5,532.6,869.1z"/>
	<path class="st24" d="M511.5,878.3c-0.5-4.4-0.8-9.2-0.9-14.2c-0.1-3.9-0.1-7.6,0-11.2c-2.4-2.5-5.7-5.2-8.7-4.3
		c-2.1,0.6-2.8,2.5-5.6,6c0,0-2.9,3.7-8.7,8.6c-6.9,5.8-9.6,4.4-12.7,7.7c-8.2,8.8-2.6,32,2.4,32.6c2.2,0.3,2.7-4,9.5-9.4
		c3.5-2.8,5.4-3.3,10.3-6C500.7,886.1,505.7,883,511.5,878.3z"/>
	<path class="st20" d="M719.2,673.1c9.3-23.5,13.8-46.4,16.1-65.5c0.1-29.8,1.2-44.8,3-45c1.1-0.1,2.5,4.9,4.2,15.1
		c2.5-1.1,5.9-3.1,9.3-7.5c5.6-7.4,7.1-16.9,8.4-16.6c1.2,0.3,1.2,8.7,0.5,17.8c-1.1,13.8-3.2,20.3-5,34.6c-1,7.3-1.4,13.4-1.7,17.3
		c-0.6,5.4-1,9.5-1.3,12.4c0,0,0,0,0,0c0,0-0.4,3.4-0.9,6.8c-3.1,21.7-10.8,76.6-32.4,89.7c-5.3,3.2-10.4,3.3-14.4,2.4
		c0.3-8.9,1.2-20,4-32.2c1.3-5.6,2.7-10.6,4.2-15.1C715.2,682.7,717.2,678.1,719.2,673.1z"/>
	<path class="st20" d="M529.7,733.6c-1.2,26.7,1.6,50.1,5.4,68.7c9,27.2,12.6,41.4,11,42.6c-1,0.7-3.8-3-8.4-11.3
		c-2,2.4-4.4,6.3-6.1,12.1c-2.8,9.9-1.3,19.4-2.6,19.9c-1.2,0.4-3.7-7.2-5.9-15.9c-3.2-13.2-3.3-20.3-6-34.3
		c-1.4-7.2-2.8-13-3.7-16.7c-1.1-5.3-2-9.2-2.6-12c0,0,0,0,0,0c0,0-0.7-3.3-1.3-6.7c-3.8-21.4-13.6-75.7,2.1-100
		c3.8-6,8.4-8.9,12.4-10.4c2.5,8.2,5,18.9,6.2,31.5c0.6,5.8,0.8,11.2,0.8,16.1C530.4,722.5,530,727.9,529.7,733.6z"/>
	<path class="st20" d="M612.2,600.7c-1.3,1.7-3.4,4-6.4,6.3c-3.1,2.4-6.9,5.3-12.3,5.8c-1.8,0.1-5.1,0.1-9.1-1.7
		c-0.4,7.9-0.7,15.7-1.1,23.6c12.1-0.2,24.2-0.4,36.2-0.6C617.2,623,614.7,611.8,612.2,600.7z"/>
	<path class="st25" d="M712.2,695.4c0.5,3.1,4.8,34.7-5.6,38.6c-4,1.5-8.7-2-23.3-13.5c-10-7.9-20.5-16.2-31.4-25.1
		c-3.7,6.6-7.3,14.3-10.1,23c-11.6,35.6-4.2,67.7,1.2,84.4c-9.3,4.7-23.9,10.2-41.9,9.5c-24.9-1-43.6-13.4-53.3-21.1
		c0.4-24-0.8-43.5-1.9-57.2c-0.4-5-3.4-39.2-6.4-39.2c-0.8,0-1.3,2.4-3.7,14.6c-1.4,7-3.2,15.7-4.2,20.9
		c-19.5,5.5-25.8-2.6-26.9-4.2c-6.7-9.2-1.1-26.4,10.1-60.6c5.6-17.2,9.8-25.3,16.8-30.8c2.4-1.9,5.7-3.9,16.8-6.8
		c8.2-2.1,19.8-4.5,34.3-5.3c1.6,0.8,4.1,1.9,7,3c5.5,2,8.2,3,11.8,3.1c3.7,0.1,6.5-0.8,12.2-2.6c3.5-1.1,6.4-2.3,8.4-3.2
		c16.9,2.4,27.5,9.5,34,15.4c2.1,1.9,6.3,5.1,12.8,14c5.8,8,13.2,17,22.4,25.8C698.7,685.3,705.8,691,712.2,695.4z"/>
	<path class="st26" d="M343.3,972.8c-5,28.4-12.2,64.3-22.9,105.4c-11.2,1.2-22.4,2.3-33.6,3.5c0.9-10.8,1.6-22,2.1-33.4
		c0.8-16.3,1.1-32,1.2-47.1c-6.4-5.8-12.9-11.6-19.3-17.4c-4.2,4.8-11.2,11.8-21.3,17.3c-18.1,9.7-30.8,6.2-33,11.5
		c-2.5,5.7,7.7,20.7,66.6,62.2c-12.1,7.9-24.2,15.7-36.2,23.6c-39.2-14.9-67.1-34.7-85.2-50.1c-23.2-19.6-42.9-36.3-40.5-54.7
		c2.5-19.4,27.2-34.4,59.7-47.2c13.1-5.2,26.3-10.4,39.4-15.6c11.7,7.7,22.1,12.5,29.8,15.6c13.1,5.2,19.7,5.8,24.5,5.8
		c6-0.1,11-1.3,14.4-2.3c-1.5-22.5-1.3-41.3-0.5-55.3c0.8-14.9,1.9-23.3,7.5-31.1c0.5-0.7,11.6-16,24.5-13.8
		c11.7,2,18.1,17.8,21.3,25.9C353.4,905.5,349.8,935.4,343.3,972.8z"/>
	<path class="st27" d="M582.7,622.8c0.9,0.5,1.6,0.9,2.1,1.2c0.4,0.2,2.2,1.1,4.9,1.8c0.4,0.1,0.7,0.2,1.1,0.3
		c1.4,0.4,4.2,1.1,6.7,1.4c0.8,0.1,2.4,0,5.5,0c4-0.1,6-0.2,7.4-0.4c0.6-0.1,3.3-0.5,6.7-1.8c2.1-0.8,3.8-1.6,5.1-2.4
		c0.7,0.2,1.4,0.4,2.1,0.6c-2.2,1.7-4.3,2.7-6.1,3.5c-1.7,0.7-3.1,1.1-4.5,1.5c-3.5,1-6.1,1.3-6.7,1.4c-1.5,0.2-5,0.5-9.5,0
		c-2.7-0.3-6-0.6-10-2.3c-3.5-1.4-6.2-3.2-8-4.7C580.5,622.8,581.6,622.8,582.7,622.8z"/>
	<path class="st20" d="M631.3,558.4c-2.6-15.1-14.7-32.9-30.6-33.4c-13.4-0.4-24,11.6-28.5,20c-4.3,7.9-5,15.9-5.3,19.6
		c-0.2,2.3-0.7,9.6,1.6,19c0.8,3.5,7.2,30.1,20.2,33.6C605.3,621.8,636.6,588.9,631.3,558.4z"/>
	<path class="st21" d="M573.1,543.3c3.5,0.6,9.1,1.4,16,1.7c15.8,0.8,22.7-1.4,27.7,3.5c2,2,4.5,5.9,4.4,14.4c4.2-0.9,5.9,0.6,6.4,1
		c3,2.8,2.6,10.7-2.8,18.6c-0.2,2.4-0.6,5.4-1.6,8.6c-1.5,4.9-3.6,8.6-5.3,10.9c6.5-2.9,18.5-9.2,26.6-20.7
		c4.5-6.3,5.2-10.6,5.3-13.3c0.3-7-3.2-12.7-3.2-12.7c0,0,2.3,4.9,10.7,23.6c-0.2-5.6-0.4-11.1-0.5-16.7c15.9,9.6,24,14.1,24.5,13.3
		c0.6-1-11.5-10.6-36.2-28.8c1.9,2,4.7,4.8,8.5,7.3c4.1,2.7,9.8,6.5,17,6.5c7.1,0,14.9-3.7,19.2-9.8c10.5-14.9,1.5-46.3-16-51.3
		c-7.8-2.2-17.1,0.8-23.4,7.5c-9.6,10.2-7.7,24.1-7.5,25.4c-7.2-5.9-19.1-13.6-34.6-15c-6.9-0.6-14-1.1-21.3,3.5
		C576.7,527.3,573.8,539.8,573.1,543.3z"/>
	<path class="st28" d="M631.8,852.6c-25.9,7.3-58.9,15.7-97.9,22.9c-5.8-10.4-11.5-20.9-17.3-31.3c6.7-2.6,16.8-6.6,28.8-12.3
		c16.7-7.8,26.4-13.7,46.2-25.1c66.7-38.5,17.4-7.3,82-41.4c6-3.2,16.7-8.9,29.2-6.1c0.8,0.2,18.3,4.4,22.1,18
		c3.4,12.3-7.1,25.3-12.5,31.9C692.3,833.6,665.7,843,631.8,852.6z"/>
	<path class="st20" d="M651.3,874.3c-1.6-3.3-1.3-7.9,0.7-12.1c2.2-4.6,6.3-7.8,10.1-8c3.3,1.4,6.7,2.9,10.1,4.5
		c3.2,1.5,6.2,3,9.2,4.5c4.6,2.7,7,7.7,5.7,11.7c-1.5,5-9.2,10.6-17.4,8.4C663.5,880.3,657.4,877.3,651.3,874.3z"/>
	<path class="st28" d="M553.7,849c25.2,9.6,57.5,20.9,95.8,31.6c6.5-9.9,13.1-19.8,19.6-29.6c-6.5-3.2-16.3-8.1-27.8-14.8
		c-16.1-9.3-25.3-16-44.1-29.2c-63.5-44.3-16.8-8.9-78.6-48.7c-5.8-3.7-16-10.4-28.6-8.7c-0.8,0.1-18.6,2.8-23.4,16
		c-4.3,12,5.1,25.9,10,33C494.8,824.6,520.6,836.3,553.7,849z"/>
	<path class="st24" d="M669.1,883c0.6-4.4,1.1-9.1,1.4-14.2c0.2-3.9,0.4-7.6,0.4-11.2c2.5-2.4,5.9-4.9,8.9-3.9
		c2.1,0.7,2.8,2.7,5.3,6.2c0,0,2.8,3.8,8.4,8.9c6.7,6.1,9.4,4.8,12.4,8.2c7.9,9.1,1.5,32-3.5,32.5c-2.2,0.2-2.6-4.1-9.2-9.8
		c-3.4-2.9-5.3-3.5-10.1-6.4C679.6,891.3,674.7,887.9,669.1,883z"/>
</g>
<g id="casa">
	<path class="bordetecho" d="M767,552.9L482.7,268.7l0,0l0,0L328.4,423c0-15.2,0-30.4,0-45.5c-28.3,0-56.5,0-84.8,0c0,43.5,0,86.9,0,130.4
		l-45.1,45.1l17.5,17.5l266.7-266.7l266.7,266.7L767,552.9z"/>
	<g>
		<polygon class="techoder" points="766.5,552.2 482.2,268 482.2,268 499.8,285.5 482.2,303 749,569.8 		"/>
		<path class="techoizq" d="M482.2,268L482.2,268L327.9,422.3c0-15.2,0-30.4,0-45.5c-28.3,0-56.5,0-84.8,0c0,43.5,0,86.9,0,130.4
			L198,552.2l17.5,17.5L482.2,303l17.5-17.5L482.2,268z"/>
	</g>
</g>
<g id="chuminadas">
	<g id="calados">
		<rect x="488" y="410.8" class="st30" width="13" height="13"/>
		<rect x="487.3" y="437.7" class="st30" width="13" height="13"/>
		<rect x="487.8" y="464.2" class="st30" width="13" height="13"/>
		<rect x="519.4" y="384" class="st30" width="13" height="13"/>
		<rect x="519.9" y="410.5" class="st30" width="13" height="13"/>
		<rect x="519.3" y="437.4" class="st30" width="13" height="13"/>
		<rect x="519.8" y="463.9" class="st30" width="13" height="13"/>
		<rect x="426" y="411" class="st30" width="13" height="13"/>
		<rect x="425.4" y="437.9" class="st30" width="13" height="13"/>
		<rect x="425.9" y="464.4" class="st30" width="13" height="13"/>
		<rect x="457.4" y="384.2" class="st30" width="13" height="13"/>
		<rect x="457.9" y="410.7" class="st30" width="13" height="13"/>
		<rect x="457.3" y="437.5" class="st30" width="13" height="13"/>
		<rect x="457.8" y="464" class="st30" width="13" height="13"/>
		<rect x="487.5" y="384.3" class="st30" width="13" height="13"/>
		<rect x="425.5" y="384.5" class="st30" width="13" height="13"/>
	</g>
	<g id="humo">
		<circle id="hum1_2_" class="st31" cx="289.3" cy="341.4" r="17.5"/>
		<circle id="hum2_2_" class="st31" cx="292.2" cy="282.6" r="32"/>
		<circle id="hum3_2_" class="st31" cx="293.8" cy="235.2" r="41.7"/>
		<circle id="hum4_2_" class="st31" cx="298.9" cy="192.5" r="59"/>
		<circle id="hum5_2_" class="st31" cx="300" cy="152.8" r="76.6"/>
	</g>
</g>
</svg>
